<?xml version="1.0" encoding="utf-8"?>
<!-- Svg Vector Icons : http://www.onlinewebfonts.com/icon -->
<!DOCTYPE svg PUBLIC "-//W3C//DTD SVG 1.1//EN" "http://www.w3.org/Graphics/SVG/1.1/DTD/svg11.dtd">
<svg version="1.1" xmlns="http://www.w3.org/2000/svg" xmlns:xlink="http://www.w3.org/1999/xlink" x="0px" y="0px" viewBox="0 0 256 256" enable-background="new 0 0 256 256" xml:space="preserve">
<metadata> Svg Vector Icons : http://www.onlinewebfonts.com/icon </metadata>
<g><g><path fill="#000000" d="M128,10C62.8,10,10,62.8,10,128c0,65.2,52.8,118,118,118c65.2,0,118-52.8,118-118C246,62.8,193.2,10,128,10z M152.8,68.8c0-3.1,2.4-5.5,5.3-5.5c3,0,5.3,2.5,5.3,5.5v14.9c0,3.1-2.4,5.5-5.3,5.5c-3,0-5.3-2.5-5.3-5.5V68.8z M122.5,68.8c0-3.1,2.4-5.5,5.3-5.5s5.3,2.5,5.3,5.5v14.9c0,3.1-2.4,5.5-5.3,5.5s-5.3-2.5-5.3-5.5V68.8z M92,68.8c0-3.1,2.4-5.5,5.3-5.5s5.3,2.5,5.3,5.5v14.9c0,3.1-2.4,5.5-5.3,5.5S92,86.7,92,83.7V68.8z M185.7,81v106.2c0,7.1-5.8,6.5-5.8,6.5h-104c-6.7,0-6-6.3-6-6.3V81c0-7.4,6-5.9,6-5.9s4.9,0,10.9,0c-0.8,20.9,8.4,20,10.5,20c15.4-0.5,12.9-20,12.9-20s1.2,0,6.1,0c-0.5,21.4,9.4,19.7,11.5,19.7c14-2.4,11.6-19.9,11.6-19.9s3.2-0.1,6.1,0c1,19.7,9.8,20.1,12.7,20.1c12.4-0.8,10.4-20,10.4-20s4.7-0.2,11.6,0C186.7,74.4,185.7,81,185.7,81z"/><path fill="#000000" d="M171.3,114.9c0-2.9-2.3-5.3-5.1-5.3H89.8c-2.8,0-5.1,2.4-5.1,5.3v1.1c0,2.9,2.3,5.3,5.1,5.3h76.5c2.8,0,5.1-2.4,5.1-5.3V114.9L171.3,114.9L171.3,114.9z"/><path fill="#000000" d="M171,141c0-2.9-2.3-5.3-5.1-5.3H89.4c-2.8,0-5.1,2.4-5.1,5.3v1.1c0,2.9,2.3,5.3,5.1,5.3h76.5c2.8,0,5.1-2.4,5.1-5.3V141L171,141L171,141z"/><path fill="#000000" d="M171,167c0-2.9-2.3-5.3-5.1-5.3H89.4c-2.8,0-5.1,2.4-5.1,5.3v1.1c0,2.9,2.3,5.3,5.1,5.3h76.5c2.8,0,5.1-2.4,5.1-5.3V167L171,167L171,167z"/></g></g>
</svg>